# xmcd
#
# Track frame offsets: 
#        150
#        29688
#        56571
#        78597
#        100875
#        126730
#        154160
#        175851
#        201676
#        222596
#
# Disc length: 3277 seconds
#
# Revision: 0
# Processed by: cddbd v1.5.2PL0 Copyright (c) Steve Scherf et al.
# Submitted via: ExactAudioCopyFreeDBPlugin 1.0
#
DISCID=9e0ccb0a
DTITLE=Mahsa Vahdat &amp - Mighty Sam McClain - A deeper tone of longin
DTITLE=g
DYEAR=2012
DGENRE=Soul
TTITLE0=A deeper tone of longing
TTITLE1=When you came
TTITLE2=Nobody
TTITLE3=Two Jewels
TTITLE4=Sun of Iran
TTITLE5=We are Sailors
TTITLE6=My heart does not know borders
TTITLE7=Refugee of love
TTITLE8=Lover´s prayer
TTITLE9=Coat of dreams and silk
EXTD=
EXTT0=
EXTT1=
EXTT2=
EXTT3=
EXTT4=
EXTT5=
EXTT6=
EXTT7=
EXTT8=
EXTT9=
PLAYORDER=
